<svg id="Camada_1" data-name="Camada 1" xmlns="http://www.w3.org/2000/svg" viewBox="0 0 732.79 724.06"><defs><style>.cls-1{fill:#ccc;}</style></defs><title>SímboloCinza</title><path class="cls-1" d="M618.31,231a8.91,8.91,0,0,0-8.92,8.91v170h0v0A234,234,0,0,1,508.48,602.54a44,44,0,0,1-47.86-1.4,46.54,46.54,0,0,1-6.3-5l-.08,0c-11.07-10.24-18.45-25.79-19.39-43.41V321.4h45.29V231H434.85v-78h0a83.61,83.61,0,1,0-119.13,0h0v78H269.49V321.4h46.16V552.69c-1,17.61-8.38,33.17-19.52,43.41l-.07,0a47,47,0,0,1-6.35,5A44.5,44.5,0,0,1,242,602.77,234,234,0,0,1,140.59,409.9h0V240a8.92,8.92,0,0,0-8.92-8.92L8.6,354.12A8.92,8.92,0,0,0,17.52,363H50.1V409.9h0c0,179.43,145.47,324.86,324.9,324.86S699.9,589.32,699.9,409.88v0h0V363h32.58a8.92,8.92,0,0,0,8.92-8.91ZM375.25,131.86A37.56,37.56,0,1,1,412.8,94.31,37.56,37.56,0,0,1,375.25,131.86Z" transform="translate(-8.6 -10.7)"/></svg>