<svg id="Camada_1" data-name="Camada 1" xmlns="http://www.w3.org/2000/svg" viewBox="0 0 740.28 193.71"><defs><style>.cls-1{fill:#ccc;}</style></defs><title>TradicionalCinza</title><path class="cls-1" d="M165.58,296.47a2.36,2.36,0,0,0-2.35,2.36v44.86h0a61.81,61.81,0,0,1-26.64,50.86,11.67,11.67,0,0,1-12.64-.37,13,13,0,0,1-1.66-1.32h0a16.84,16.84,0,0,1-5.12-11.46V320.34h12V296.47h-12v-20.6h0a22.07,22.07,0,1,0-31.44,0h0v20.6H73.51v23.87H85.7v61.05a16.78,16.78,0,0,1-5.15,11.46h0a13.17,13.17,0,0,1-1.68,1.32,11.78,11.78,0,0,1-12.6.43A61.78,61.78,0,0,1,39.49,343.7h0V298.84a2.36,2.36,0,0,0-2.36-2.35L4.65,329A2.36,2.36,0,0,0,7,331.33h8.6V343.7h0a85.76,85.76,0,1,0,171.51,0h0V331.32h8.6a2.36,2.36,0,0,0,2.35-2.36Zm-64.15-26.16a9.91,9.91,0,1,1,9.91-9.91A9.91,9.91,0,0,1,101.43,270.31Z" transform="translate(-4.65 -238.33)"/><path class="cls-1" d="M233.86,297.71a1.88,1.88,0,0,1,1.93-1.89q5,.17,12.51.32,9,.18,18,.18,9.44,0,18.13-.18t12.27-.19q28.68,0,42.75,10.38t14.06,26.8a40.11,40.11,0,0,1-2.83,14.26,36.61,36.61,0,0,1-9.62,13.78q-6.81,6.31-18.6,10.28t-29.92,4H274.44a1.89,1.89,0,0,1-1.89-1.89h0a1.89,1.89,0,0,1,1.89-1.89h16.24q9.61,0,14.62-5.09a26.68,26.68,0,0,0,6.8-13.41,85.2,85.2,0,0,0,1.79-17.93q0-17.93-4.06-26.8t-14.06-8.88q-6.42,0-8.3,3.21t-1.89,13v91.74q0,7.74,1.6,11.51a8.4,8.4,0,0,0,6.14,4.91,52.33,52.33,0,0,0,11.34,1.12,1.9,1.9,0,0,1,1.87,1.89v.53a1.87,1.87,0,0,1-1.93,1.88q-6-.15-14.87-.32-10.38-.19-22.08-.19-8.68,0-17.37.19l-14.5.33a1.88,1.88,0,0,1-1.92-1.89v-.1a1.88,1.88,0,0,1,1.71-1.87,26.18,26.18,0,0,0,7-1.38,6.36,6.36,0,0,0,3.77-4.53,40.8,40.8,0,0,0,.95-10.19V315.77a40.62,40.62,0,0,0-.95-10.29,6.58,6.58,0,0,0-3.87-4.53,22,22,0,0,0-6.83-1.33,1.89,1.89,0,0,1-1.75-1.88Z" transform="translate(-4.65 -238.33)"/><path class="cls-1" d="M401,328.79q14.73,0,25.58,5a36,36,0,0,1,16.89,16.33q6,11.33,6,30.4t-6,30.39a35.47,35.47,0,0,1-16.89,16.23Q415.68,432,401,432.05q-14.54,0-25.48-4.91a35.32,35.32,0,0,1-17-16.23q-6-11.32-6-30.39t6-30.4a35.86,35.86,0,0,1,17-16.33Q386.42,328.79,401,328.79Zm-9.44,15.1q-3.78,11.33-3.77,36.63T391.52,417c2.52,7.49,16.36,7.49,18.88,0s3.77-19.66,3.77-36.52-1.26-29.08-3.77-36.63S394,336.34,391.52,343.89Z" transform="translate(-4.65 -238.33)"/><path class="cls-1" d="M494.24,328.79a53.68,53.68,0,0,1,14.63,1.8,49.65,49.65,0,0,1,9.15,3.3q6,3.6,7.79-3.37a2,2,0,0,1,2-1.54h0a2,2,0,0,1,2,2.11q-.28,4.83-.43,11.2-.18,7.21-.19,18.65a2,2,0,0,1-2,2h0a2,2,0,0,1-2-1.75,56.88,56.88,0,0,0-3.08-12,29.5,29.5,0,0,0-7.36-11.33q-4.82-4.53-12.56-4.53a11.56,11.56,0,0,0-7.92,2.83,9.76,9.76,0,0,0-3.21,7.74,16.17,16.17,0,0,0,3.39,10.1,46.58,46.58,0,0,0,8.69,8.5q5.28,4,10.57,8.59a102.81,102.81,0,0,1,14.53,14q5.85,7,5.86,17.93a23.78,23.78,0,0,1-5.2,15.1,34.31,34.31,0,0,1-13.77,10.29,48.27,48.27,0,0,1-19.16,3.68,41.52,41.52,0,0,1-11.52-1.42,31.43,31.43,0,0,1-7.93-3.3c-2-1-3.74-1.79-5.19-2.36a11.54,11.54,0,0,0-4.25-.85,3.82,3.82,0,0,0-3.21,2,15.58,15.58,0,0,0-1.65,3.32,2,2,0,0,1-1.88,1.31h-.19a2,2,0,0,1-2-2.11c.2-3.59.34-7.8.45-12.62q.17-8.06.19-21a2,2,0,0,1,2-2h0a2,2,0,0,1,2,1.76,61.7,61.7,0,0,0,4.22,16,32.28,32.28,0,0,0,8.49,12.17,17.9,17.9,0,0,0,12,4.44,12.2,12.2,0,0,0,7.65-2.55q3.3-2.55,3.3-7.83a20.35,20.35,0,0,0-5-14,157.89,157.89,0,0,0-12.56-12.46q-5.65-5.28-10.66-10.29a46.7,46.7,0,0,1-8.21-11,27.54,27.54,0,0,1-3.21-13.3,22,22,0,0,1,5-14.54,32.53,32.53,0,0,1,13.12-9.34A45.67,45.67,0,0,1,494.24,328.79Z" transform="translate(-4.65 -238.33)"/><path class="cls-1" d="M584.13,328.79a42.64,42.64,0,0,1,14,2,26.34,26.34,0,0,1,8.83,5.21,1.51,1.51,0,0,1,.08,2.21l-.07.08a1.46,1.46,0,0,1-1.91.12,16.7,16.7,0,0,0-4.47-2.33,17.56,17.56,0,0,0-5.67-1q-8.68,0-13,11.14t-4.34,34.17q0,16.6,1.7,25.76t4.62,12.65q2.92,3.5,6.32,3.49a13.47,13.47,0,0,0,9.44-3.87,12.73,12.73,0,0,0,4.16-9.72v8.74a2.1,2.1,0,0,1-.24,1,27.15,27.15,0,0,1-9,10.22Q589,432,580.73,432.05a36.7,36.7,0,0,1-19.54-5.38q-8.78-5.39-13.87-16.9t-5.1-30q0-17.17,5.19-28.41T562,334.46Q571.48,328.79,584.13,328.79Zm51.31-46.59a2,2,0,0,1,2.29,1.92V408.64q0,8.49,2.36,12.55a8.09,8.09,0,0,0,6.48,4,2,2,0,0,1,1.74,1.93h0a2,2,0,0,1-2.12,1.94c-3.2-.25-6.39-.38-9.59-.38q-9.44,0-17.55.57a113.46,113.46,0,0,0-13,1.61,1.94,1.94,0,0,1-2.32-1.91V304.44q0-8.49-2.27-12.55c-1.28-2.29-3.45-3.61-6.53-4a2,2,0,0,1-1.77-1.94h0a2,2,0,0,1,2.11-1.94q4.92.38,9.59.38,9.43,0,17.65-.66Q629.42,283.21,635.44,282.2Z" transform="translate(-4.65 -238.33)"/><path class="cls-1" d="M696.42,328.79q14.73,0,25.58,5a35.92,35.92,0,0,1,16.89,16.33q6,11.33,6,30.4t-6,30.39A35.38,35.38,0,0,1,722,427.14q-10.86,4.91-25.58,4.91-14.53,0-25.48-4.91a35.37,35.37,0,0,1-17-16.23q-6-11.32-6-30.39t6-30.4a35.9,35.9,0,0,1,17-16.33Q681.89,328.79,696.42,328.79ZM687,343.89q-3.78,11.33-3.77,36.63T687,417c1.24,3.68,5.2,5.55,9.21,5.62,4.17.07,8.39-1.81,9.67-5.62q3.78-11.22,3.78-36.52t-3.78-36.63C703.34,336.34,689.5,336.34,687,343.89Z" transform="translate(-4.65 -238.33)"/><path class="cls-1" d="M284,394.47a1.35,1.35,0,0,1,1.9,0l4.28,4.35a1.35,1.35,0,0,1,0,1.9L285.81,405a1.34,1.34,0,0,1-1.9,0" transform="translate(-4.65 -238.33)"/><path class="cls-1" d="M249,394.47a1.35,1.35,0,0,0-1.9,0l-4.28,4.35a1.35,1.35,0,0,0,0,1.9l4.33,4.26a1.34,1.34,0,0,0,1.9,0" transform="translate(-4.65 -238.33)"/></svg>