<?xml version="1.0" encoding="utf-8"?>
<!-- Generator: Adobe Illustrator 23.0.2, SVG Export Plug-In . SVG Version: 6.00 Build 0)  -->
<svg version="1.1" id="Camada_1" xmlns="http://www.w3.org/2000/svg" xmlns:xlink="http://www.w3.org/1999/xlink" x="0px" y="0px"
	 viewBox="0 0 250 250" style="enable-background:new 0 0 250 250;" xml:space="preserve">
<style type="text/css">
	.st0{fill:#CCCCCC;}
</style>
<g>
	<g>
		<path class="st0" d="M137.2,232.9c0-9.4,7.6-17.1,17.1-17.1c9.4,0,17.1,7.6,17.1,17.1s-7.6,17.1-17.1,17.1
			S137.2,242.4,137.2,232.9z M146.4,232.9c0,4.3,3.5,7.8,7.8,7.8c4.3,0,7.8-3.5,7.8-7.8c0-4.3-3.5-7.8-7.8-7.8
			C149.9,225.1,146.4,228.6,146.4,232.9z"/>
	</g>
	<g>
		<path class="st0" d="M89.2,48c0-26.5,21.5-48,48-48s48,21.5,48,48s-21.5,48-48,48S89.2,74.4,89.2,48z M115.1,48
			c0,12.2,9.9,22,22,22s22-9.9,22-22s-9.9-22-22-22S115.1,35.8,115.1,48z"/>
	</g>
	<g>
		<path class="st0" d="M65.2,161.9c0-16.5,13.4-30,30-30s30,13.4,30,30s-13.4,30-30,30S65.2,178.4,65.2,161.9z M81.4,161.9
			c0,7.6,6.2,13.8,13.8,13.8s13.8-6.2,13.8-13.8s-6.2-13.8-13.8-13.8C87.6,148.1,81.4,154.3,81.4,161.9z"/>
	</g>
</g>
</svg>
